<svg width="639" height="872" viewBox="0 0 639 872" fill="none" xmlns="http://www.w3.org/2000/svg">
<path d="M86.8523 80.1909C89.5211 135.347 107.256 186.857 126.144 238.351C148.678 299.788 166.902 363.611 196.52 422.125C216.05 460.71 232.509 500.453 251.478 539.253C253.765 543.932 269.88 565.235 269.88 569.84C269.88 574.151 264.553 563.06 261.922 559.644C248.935 542.783 235.116 526.577 221.885 509.908C173.126 448.484 126.402 385.305 78.8946 322.902C35.6227 266.062 1.80402 215.223 1.80402 141.863C1.80402 106.37 7.84022 15.3092 53.5293 4.34378C154.236 -19.8258 178.059 135.03 184.832 201.795C195.175 303.752 212.636 441.886 133.853 522.591C125.459 531.189 57.417 589.65 44.3282 557.655C19.9598 498.088 58.5038 431.962 118.186 416.903C175.072 402.548 221.004 419.719 274.854 432.818C317.785 443.261 301.711 370.611 301.711 346.278C301.711 334.924 306.789 308.276 299.473 298.034C299.324 297.825 305.623 323.803 310.664 330.86C318.017 341.155 357.933 396.429 341.251 349.51C336.707 336.73 302.379 228.404 285.796 228.404C261.06 228.404 252.473 271.202 252.473 287.838C252.473 325.202 257.602 305.401 263.663 279.134C265.106 272.884 268.654 197.683 268.885 197.567C284.404 189.808 342.348 253.859 350.95 261.727C388.442 296.018 423.684 332.531 459.871 368.161C471.351 379.465 483.58 386.343 458.876 378.109C419.672 365.04 382.111 349.038 341.002 342.547C334.272 341.485 306.791 342.878 302.706 333.346C294.215 313.534 306.721 275.498 311.161 256.504C322.701 207.139 366.078 129.908 332.05 81.1856C328.043 75.4478 305.521 50.1744 295.743 58.5558C284.067 68.5633 326.006 140.384 330.558 148.329C359.293 198.48 396.231 244.849 433.014 289.33C434.328 290.919 467.771 330.478 470.813 324.394C480.491 305.038 467.805 264.372 465.342 244.319C464.551 237.877 457.152 203.596 463.85 197.567C469.381 192.589 500.229 219.251 502.893 207.266C505.534 195.38 494.107 132.891 512.342 140.869C520.052 144.242 528.637 146.261 535.469 150.816C548.162 159.277 522.087 122.847 511.596 111.773C498.473 97.9205 408.9 38.6229 400.437 80.937C393.071 117.764 393.494 142.858 435.998 142.858C458.043 142.858 446.156 162.883 439.977 178.917C423.138 222.606 399.979 263.957 376.812 304.5C317.054 409.076 251.994 510.62 186.821 611.867C150.209 668.745 112.89 725.18 76.9051 782.461C61.1269 807.577 37.5311 837.62 28.6614 866.763C24.9238 879.044 47.5717 849.325 56.0161 839.657C128.403 756.78 197.533 671.213 265.901 585.01C375.019 447.426 482.055 308.2 591.92 171.208C602.992 157.402 619.018 126.614 637.428 120.477" stroke="black" stroke-width="3" stroke-linecap="round"/>
</svg>
